<svg fill="none" xmlns="http://www.w3.org/2000/svg" viewBox="0 0 24 24" id="apple-brands"><path d="M18.862 12.683c-.01-1.967.879-3.451 2.68-4.544-1.008-1.441-2.53-2.234-4.54-2.39-1.901-.15-3.98 1.11-4.741 1.11-.804 0-2.647-1.056-4.094-1.056C5.177 5.85 2 8.187 2 12.94c0 1.404.257 2.854.772 4.35.685 1.967 3.16 6.79 5.743 6.709 1.35-.032 2.304-.96 4.062-.96 1.704 0 2.588.96 4.094.96 2.604-.037 4.843-4.42 5.497-6.392-3.494-1.645-3.306-4.822-3.306-4.924Zm-3.033-8.798C17.292 2.149 17.16.568 17.115 0c-1.291.075-2.786.879-3.638 1.87-.938 1.06-1.49 2.374-1.372 3.852 1.399.108 2.674-.61 3.724-1.837Z" fill="currentColor"></path></svg>